<svg xmlns="http://www.w3.org/2000/svg" width="16" height="20">
    <path fill-rule="evenodd" d="M15.23 7.433l-.863 4.569v.407h-.076l-.945 5.004v.054h-.01l-.478 2.529H3.137l-1.43-7.587H1.64v-.355L.77 7.433c-.432-.096-.76-.442-.76-.875 0-.506.439-.917.98-.917h.014C1.515 2.456 4.453.003 8 .003c3.547 0 6.485 2.453 6.996 5.638h.014c.541 0 .98.411.98.917 0 .433-.328.779-.76.875zm-.835.041h-1.896l-.187 1.59h1.817l.266-1.59zm-.403 2.406h-1.776l-.202 1.713h1.692l.286-1.713zm-.422 2.529h-1.652l-.201 1.713h1.566l.287-1.713zm-.709 4.242l.286-1.713h-1.526l-.202 1.713h1.442zm-1.342-7.587l.152-1.59H9.775l-.074 1.59h1.818zm-1.856.816l-.079 1.713h1.692l.164-1.713H9.663zm2.773 9.312l.288-1.725h-1.401l-.203 1.725h1.316zm-1.239-6.783H9.546l-.08 1.713h1.567l.164-1.713zm-.243 2.529H9.428l-.08 1.713h1.442l.164-1.713zm-.408 4.254l.165-1.725H9.31l-.08 1.725h1.316zm-3.206 0h1.316l.043-1.725H7.297l.043 1.725zm-.063-2.541h1.442l.043-1.713H7.235l.042 1.713zm-.062-2.529h1.567l.043-1.713H7.173l.042 1.713zm-.062-2.529h1.692l.043-1.713H7.111l.042 1.713zm-.062-2.529h1.817l.04-1.59H7.052l.039 1.59zM5.45 19.192h1.315l-.079-1.725H5.285l.165 1.725zm-.244-2.541h1.442l-.079-1.713H5.043l.163 1.713zm1.325-2.529l-.079-1.713H4.801l.163 1.713h1.567zM4.559 9.88l.163 1.713h1.692L6.335 9.88H4.559zm1.739-.816l-.074-1.59H4.328l.152 1.59h1.818zM3.56 19.192h1.315l-.202-1.725H3.272l.288 1.725zm-.424-2.541h1.441l-.201-1.713H2.85l.286 1.713zm-.422-2.529h1.567l-.201-1.713H2.428l.286 1.713zm-.422-2.529h1.692L3.783 9.88H2.006l.286 1.713zM1.87 9.064h1.817l-.186-1.59H1.605l.265 1.59zM8 .609c-3.188 0-5.822 2.184-6.329 5.032h12.658C13.822 2.793 11.188.609 8 .609z"/>
</svg>
