<svg xmlns="http://www.w3.org/2000/svg" viewBox="0 0 320.8 84.37"><defs><style>.cls-1{fill:#6c6f74;}.cls-2{fill:#130e15;}.cls-3{fill:#db1736;}</style></defs><g id="Capa_2" data-name="Capa 2"><g id="Capa_1-2" data-name="Capa 1"><polyline class="cls-1" points="85.7 59.23 93.12 59.23 93.12 60.4 87.2 60.4 87.2 63.72 92.39 63.72 92.39 64.89 87.2 64.89 87.2 69.68 85.7 69.68 85.7 59.23"/><rect class="cls-1" x="97.37" y="59.23" width="1.5" height="10.46"/><polyline class="cls-1" points="106.5 60.4 102.74 60.4 102.74 59.23 111.77 59.23 111.77 60.4 108 60.4 108 69.68 106.5 69.68 106.5 60.4"/><polyline class="cls-1" points="127.15 65.41 127.15 69.68 125.64 69.68 125.64 65.41 121.28 59.23 123.06 59.23 126.45 64.21 129.76 59.23 131.47 59.23 127.15 65.41"/><path class="cls-1" d="M140,59a5.48,5.48,0,1,1-5.41,5.47A5.18,5.18,0,0,1,140,59m0,9.78c2.75,0,3.91-2.2,3.91-4.31s-1.16-4.3-3.91-4.3-3.91,2.2-3.91,4.3S137.29,68.76,140,68.76Z"/><path class="cls-1" d="M158.83,65.9c0,2.64-1.63,4-4.44,4s-4.64-1.24-4.64-4V59.23h1.51V65.9c0,1.85,1.13,2.86,3.13,2.86a2.61,2.61,0,0,0,2.94-2.86V59.23h1.5V65.9"/><path class="cls-1" d="M163.77,59.23h5.31c2.12,0,3.44,1.07,3.44,2.74a2.53,2.53,0,0,1-2,2.65v0c1.32.24,1.59,1.13,1.7,2.16s0,2.17.66,2.88h-1.67c-.43-.42-.19-1.55-.42-2.57s-.42-1.89-1.88-1.89h-3.67v4.46h-1.5V59.23m4.63,4.82c1.41,0,2.61-.34,2.61-1.87,0-1-.6-1.78-2-1.78h-3.73v3.65Z"/><path class="cls-1" d="M192.51,68.38a4.56,4.56,0,0,1-3.62,1.55,5.19,5.19,0,0,1-5.38-5.27c0-3,1.8-5.68,5.38-5.68,2.47,0,4.43,1,4.86,3.47h-1.51c-.3-1.58-1.67-2.3-3.35-2.3-2.74,0-3.88,2.2-3.88,4.44a3.88,3.88,0,0,0,3.88,4.17c2.32,0,3.72-1.51,3.62-3.41h-3.6V64.18h5v5.5h-1l-.4-1.3"/><path class="cls-1" d="M203.38,59A5.48,5.48,0,1,1,198,64.45,5.18,5.18,0,0,1,203.38,59m0,9.78c2.75,0,3.91-2.2,3.91-4.31s-1.16-4.3-3.91-4.3-3.91,2.2-3.91,4.3S200.63,68.76,203.38,68.76Z"/><polyline class="cls-1" points="213.16 59.23 214.66 59.23 214.66 68.51 220.64 68.51 220.64 69.68 213.16 69.68 213.16 59.23"/><polyline class="cls-1" points="224.48 59.23 231.9 59.23 231.9 60.4 225.99 60.4 225.99 63.72 231.18 63.72 231.18 64.89 225.99 64.89 225.99 69.68 224.48 69.68 224.48 59.23"/><path class="cls-2" d="M105.59,48.5H85.69V7.32h21a8.22,8.22,0,0,1,6.55,2.86,10.35,10.35,0,0,1,2.43,7v20.6c0,4.6-2,7.87-5.81,9.72a10,10,0,0,1-4.25,1m-13-6.9H105.3c1.48,0,3.44-.45,3.44-4.31V17.83a2.24,2.24,0,0,1,0-.45,4.07,4.07,0,0,0-.93-2.5,4,4,0,0,0-2.63-.66H92.59Z"/><path class="cls-2" d="M121.62,37.77V19.25q0-12,12.85-12h10.25a11.06,11.06,0,0,1,8,2.8,10.29,10.29,0,0,1,2.91,7.77v4.88L128.48,35.33v1.81a7.5,7.5,0,0,0,1.26,3.55c.64.73,1.79,1.11,3.48,1.11h22.84v6.85H132.89a11.32,11.32,0,0,1-8.08-3,10.32,10.32,0,0,1-3.19-7.89m6.86-10,20.18-9.39v-.64q0-3.61-4.2-3.61H133.15c-3.12,0-4.67,1.75-4.67,5.23Z"/><path class="cls-2" d="M169.09,48.5h-6.94V7.08h18.06c7.9,0,11.9,3.42,11.9,10.17V23c0,3.42-1,6.09-3.09,7.94a11.88,11.88,0,0,1-8.23,2.76h-11.7V48.5m0-21.73h11.68a5.68,5.68,0,0,0,3.2-.71,3.74,3.74,0,0,0,1.22-2.66V17.59a2.18,2.18,0,0,0-.05-.61,3.32,3.32,0,0,0-1-2.23,5.51,5.51,0,0,0-2.43-.68L181.3,14H169.09Z"/><path class="cls-2" d="M196.63,12A4.65,4.65,0,0,1,198,8.65a4.62,4.62,0,0,1,6.66.08A4.81,4.81,0,0,1,206,12.16a4.71,4.71,0,0,1-8,3.27A4.74,4.74,0,0,1,196.63,12m1.26,9.07V48.65h6.94V21.07Z"/><path class="cls-2" d="M241.46,53.82h-9.52l-5.67-5.5h-6a9,9,0,0,1-7.86-4.26,9,9,0,0,1-1.64-5.18V17.24c0-5.55,2.62-8.9,7.78-9.95a8.73,8.73,0,0,1,1.66-.18H231.2A9.15,9.15,0,0,1,238.25,10a10.66,10.66,0,0,1,2.44,7.26V37.85a12.36,12.36,0,0,1-1.16,5.83,8.11,8.11,0,0,1-4.46,3.56l6.39,6.58m-20-39.8a3.62,3.62,0,0,0-2.71,1,3.72,3.72,0,0,0-1,2.73V37.33c0,.09,0,.37.11.84.3,2.21,1.44,3.24,3.58,3.24h8.79a3.27,3.27,0,0,0,2.62-1.06,4.19,4.19,0,0,0,1-2.84V17.75a3.69,3.69,0,0,0-.06-.71,3.17,3.17,0,0,0-3.52-3Z"/><path class="cls-2" d="M246.16,38V7.27h7V39q.56,2.6,4.67,2.6h11a5.24,5.24,0,0,0,3.6-1,4.63,4.63,0,0,0,1.07-3.5V7.27h6.86V38q0,10.65-11.67,10.64H257.82q-11.65,0-11.66-10.64"/><path class="cls-2" d="M286.35,37.77V19.25q0-12,12.85-12h10.25a11.06,11.06,0,0,1,8,2.8,10.29,10.29,0,0,1,2.91,7.77v4.88L293.21,35.33v1.81a7.6,7.6,0,0,0,1.27,3.55c.63.73,1.79,1.11,3.47,1.11H320.8v6.85H297.62a11.28,11.28,0,0,1-8.07-3,10.32,10.32,0,0,1-3.2-7.89m6.86-10,20.18-9.39v-.64q0-3.61-4.2-3.61H297.88c-3.11,0-4.67,1.75-4.67,5.23Z"/><path class="cls-3" d="M57.25,34.9v.5L41.51,42.72V36.16q0-4.08,3.64-4.08H54q3.27,0,3.27,2.82m-41.6,8.33h8.84q3.65,0,3.64-4.08V32.59L12.38,39.91v.5C12.38,42.29,13.48,43.23,15.65,43.23ZM69.43,6.12c0-1.73,0-3.15,0-6.12H33.48V39.23q0,9.35-10,9.35h-8A8.65,8.65,0,0,1,9.24,46.4,8,8,0,0,1,7,40.34V36.52l21.16-9.83V0H.13c0,9.79,0,28.37-.13,38.12v8.49C.5,59.07,5.6,66.67,13.34,72.17l21.43,12.2,1.38-.79V36.08q0-9.36,10-9.35h8a8.63,8.63,0,0,1,6.21,2.18A8,8,0,0,1,62.66,35v3.82L41.51,48.62V80.53L56.5,72C64.34,66.44,69,58.45,69.4,45.82V42.29C69.4,33.08,69.43,15.41,69.43,6.12Z"/></g></g></svg>