<svg xmlns="http://www.w3.org/2000/svg" width="30.375" height="29.626" viewBox="0 0 30.375 29.626">
  <defs>
    <style>
      .cls-1 {
        fill: #c8102e;
        fill-rule: evenodd;
      }
    </style>
  </defs>
  <path id="Devoluciones" class="cls-1" d="M783.172,470.861a0.37,0.37,0,0,0-.507-0.132l-1.235.724a0.37,0.37,0,1,0,.375.638l0.558-.327A14.079,14.079,0,0,1,755.1,471.5a0.37,0.37,0,0,0-.719.177,14.82,14.82,0,0,0,28.66.42l0.217,0.37a0.37,0.37,0,0,0,.639-0.374Zm-28.6-5.343a0.366,0.366,0,0,0,.16-0.036l1.29-.621a0.37,0.37,0,1,0-.321-0.667l-0.526.252a14.079,14.079,0,0,1,27.257.317,0.37,0.37,0,0,0,.359.282,0.344,0.344,0,0,0,.089-0.011,0.369,0.369,0,0,0,.271-0.447,14.82,14.82,0,0,0-28.658-.456l-0.209-.433a0.37,0.37,0,0,0-.667.321l0.621,1.289A0.369,0.369,0,0,0,754.577,465.518Z" transform="translate(-753.594 -453.312)"/>
</svg>
