<svg xmlns="http://www.w3.org/2000/svg" width="29.657" height="29.626" viewBox="0 0 29.657 29.626">
  <defs>
    <style>
      .cls-1 {
        fill: #c8102e;
        fill-rule: evenodd;
      }
    </style>
  </defs>
  <path id="reloj" class="cls-1" d="M210.392,463.593l-8.323,10.283-4.76-4.761a0.369,0.369,0,1,0-.523.522l5.051,5.051a0.365,0.365,0,0,0,.261.108h0.019a0.37,0.37,0,0,0,.268-0.137l8.581-10.6A0.369,0.369,0,1,0,210.392,463.593Zm-6.529-9.286a14.819,14.819,0,1,0,14.819,14.819A14.836,14.836,0,0,0,203.863,454.307Zm0,28.9a14.08,14.08,0,1,1,14.08-14.08A14.1,14.1,0,0,1,203.863,483.206Z" transform="translate(-189.031 -454.312)"/>
</svg>
