<svg xmlns="http://www.w3.org/2000/svg" width="20.032" height="29.469" viewBox="0 0 20.032 29.469">
  <defs>
    <style>
      .cls-1 {
        fill: #c8102e;
        fill-rule: evenodd;
      }
    </style>
  </defs>
  <path id="candado" class="cls-1" d="M488.823,453.076a6.726,6.726,0,0,0-6.753,6.684v4.586h-1.048a2.212,2.212,0,0,0-2.22,2.2v6.072a10.022,10.022,0,0,0,20.043,0v-6.072a2.212,2.212,0,0,0-2.22-2.2h-1.048V459.76A6.727,6.727,0,0,0,488.823,453.076Zm-6.008,6.684a6.009,6.009,0,0,1,12.017,0v4.586H493.3v-4.659a4.48,4.48,0,0,0-8.959,0v4.659h-1.529V459.76Zm9.744,4.586h-7.471v-4.659a3.736,3.736,0,0,1,7.471,0v4.659Zm5.542,2.2v6.072a9.278,9.278,0,0,1-18.555,0v-6.072a1.47,1.47,0,0,1,1.476-1.461h15.6A1.47,1.47,0,0,1,498.1,466.544Zm-10.51,6.449v1.452a1.233,1.233,0,0,0,2.465,0v-1.452A2.124,2.124,0,1,0,487.591,472.993Zm1.232-3.074a1.362,1.362,0,0,1,.678,2.552,0.368,0.368,0,0,0-.189.321v1.653a0.488,0.488,0,0,1-.976,0v-1.653a0.368,0.368,0,0,0-.189-0.321A1.362,1.362,0,0,1,488.823,469.919Z" transform="translate(-478.812 -453.062)"/>
</svg>
